HIERARCHY
ROOT Hips
{
  OFFSET 90.7885 88.945 -76.2838
  CHANNELS 6 Xposition Yposition Zposition Zrotation Xrotation Yrotation
  JOINT LeftUpLeg
  {
    OFFSET 8.64259 1.95398 -2.38835
    CHANNELS 3 Zrotation Xrotation Yrotation
    JOINT LeftLeg
    {
      OFFSET 43.7702 0 0
      CHANNELS 3 Zrotation Xrotation Yrotation
      JOINT LeftFoot
      {
        OFFSET 40.6238 0 0
        CHANNELS 3 Zrotation Xrotation Yrotation
        JOINT LeftToeBase
        {
          OFFSET 12.7242 0 0
          CHANNELS 3 Zrotation Xrotation Yrotation
          End Site
          {
            OFFSET 0 0 0
          }
        }
      }
    }
  }
  JOINT RightUpLeg
  {
    OFFSET -8.2249 1.95398 -2.59336
    CHANNELS 3 Zrotation Xrotation Yrotation
    JOINT RightLeg
    {
      OFFSET 43.5653 0 0
      CHANNELS 3 Zrotation Xrotation Yrotation
      JOINT RightFoot
      {
        OFFSET 40.6238 0 0
        CHANNELS 3 Zrotation Xrotation Yrotation
        JOINT RightToeBase
        {
          OFFSET 12.7242 0 0
          CHANNELS 3 Zrotation Xrotation Yrotation
          End Site
          {
            OFFSET 0 0 0
          }
        }
      }
    }
  }
  JOINT Spine
  {
    OFFSET 0.165834 0.87714 6.61349
    CHANNELS 3 Zrotation Xrotation Yrotation
    JOINT Spine1
    {
      OFFSET 7.38963 1.71661e-005 0
      CHANNELS 3 Zrotation Xrotation Yrotation
      JOINT Spine2
      {
        OFFSET 11.9445 1.14441e-005 0
        CHANNELS 3 Zrotation Xrotation Yrotation
        JOINT Spine3
        {
          OFFSET 14.7254 4.19617e-005 0
          CHANNELS 3 Zrotation Xrotation Yrotation
          JOINT Spine4
          {
            OFFSET 10.9679 0 0
            CHANNELS 3 Zrotation Xrotation Yrotation
            JOINT RightShoulder
            {
              OFFSET 2.46616 -1.6653 3.69651
              CHANNELS 3 Zrotation Xrotation Yrotation
              JOINT RightArm
              {
                OFFSET 13.0012 0 0
                CHANNELS 3 Zrotation Xrotation Yrotation
                JOINT RightForeArm
                {
                  OFFSET 28.7848 1.52588e-005 0
                  CHANNELS 3 Zrotation Xrotation Yrotation
                  JOINT RightHand
                  {
                    OFFSET 26.5688 1.52588e-005 0
                    CHANNELS 3 Zrotation Xrotation Yrotation
                    End Site
                    {
                      OFFSET 0 0 0
                    }
                  }
                }
              }
            }
            JOINT LeftShoulder
            {
              OFFSET 2.38034 -1.29275 -3.7523
              CHANNELS 3 Zrotation Xrotation Yrotation
              JOINT LeftArm
              {
                OFFSET 16.3182 6.10352e-005 0
                CHANNELS 3 Zrotation Xrotation Yrotation
                JOINT LeftForeArm
                {
                  OFFSET 27.0901 0 0
                  CHANNELS 3 Zrotation Xrotation Yrotation
                  JOINT LeftHand
                  {
                    OFFSET 24.5451 1.52588e-005 0
                    CHANNELS 3 Zrotation Xrotation Yrotation
                    End Site
                    {
                      OFFSET 0 0 0
                    }
                  }
                }
              }
            }
            JOINT Neck
            {
              OFFSET 5.0226 -0.0266342 0
              CHANNELS 3 Zrotation Xrotation Yrotation
              JOINT Head
              {
                OFFSET 6.69363 2.86102e-005 0
                CHANNELS 3 Zrotation Xrotation Yrotation
                End Site
                {
                  OFFSET 0 0 0
                }
              }
            }
          }
        }
      }
    }
  }
}
MOTION
Frames:	12
Frame Time:	0.0416667
-315.357 98.9634 -292.475 101.516 -49.1415 97.9943 -177.137 -7.33123 90.8479 -6.83809 -1.34733 0.285701 64.5852 2.90403 -1.48116 18.04 10.245 -10.54 169.667 -2.77601 86.174 -12.2609 -22.8181 -1.47754 60.5622 -0.402571 -7.06272 26.2949 -2.87125 6.96172 -0.035901 8.00318 -90.0642 10.845 -0.101109 -0.118353 -0.825977 -0.106216 -0.113799 -23.3611 -0.0608857 -0.143282 -3.34846 -0.0608689 -0.143272 89.1396 -31.7851 -107.752 38.3656 -16.8232 -6.60261 0.450372 -37.6918 -20.477 -16.4449 -0.878745 -13.7958 -90.2514 -57.8043 79.9401 -13.519 24.6105 -17.2857 -0.388913 -4.82931 -10.5898 -4.04197 0.0293977 -12.5862 6.06819 -8.66604 -0.910576 -2.89322 -8.30152 -3.55235 
-315.417 98.9376 -292.381 101.445 -49.6628 98.2469 -176.939 -7.00239 91.1797 -7.40953 -1.74138 0.187028 64.9422 2.8875 -1.31506 7.96978 17.5585 -14.6591 170.358 -2.77613 86.8077 -12.3138 -22.3678 -1.95268 60.5679 -0.447147 -6.58657 25.9923 -2.7881 6.79692 0.0316805 8.00257 -90.118 10.8632 0.00861204 -0.235496 -0.807817 -0.00175944 -0.235648 -23.3428 0.0789795 -0.222021 -3.33017 0.0789713 -0.222027 89.2082 -31.4616 -107.745 38.4985 -16.4876 -6.85311 0.520726 -41.1532 -20.0084 -9.97013 -1.3194 -16.9506 -90.2474 -58.3492 80.0481 -13.1117 24.5876 -17.3943 -0.604248 -5.6163 -10.4856 -4.03543 0.0414705 -14.8874 6.30451 -8.48559 -0.391265 -2.88915 -8.21444 -4.26063 
-315.427 98.9092 -292.335 101.558 -49.5388 98.3654 -176.898 -6.84774 91.2617 -7.95322 -1.6428 0.221016 65.2432 2.90775 -1.40006 24.1812 5.79241 -7.22589 170.299 -3.13949 86.7953 -11.9158 -21.9278 -1.89614 61.0299 -0.738465 -6.17787 25.4021 -2.73031 6.7128 0.0201797 8.00315 -90.1618 10.8682 -0.0345749 -0.318646 -0.802769 -0.0485627 -0.316834 -23.3376 0.0627801 -0.314312 -3.32497 0.0627763 -0.314324 89.0193 -31.0984 -108.253 38.3751 -16.1909 -7.16464 1.35144 -49.1875 -18.8903 2.61057 -3.31265 -25.2919 -90.3219 -59.3053 80.1255 -12.3369 24.4266 -17.4611 -0.0657113 -3.04529 -10.3708 -6.626 0.220243 -12.5097 6.21009 -8.32956 0.326788 -2.53654 -8.20912 -4.68926 
-315.432 98.8305 -292.311 101.63 -49.4806 98.3877 -176.936 -6.72784 91.2441 -8.29015 -1.67202 0.262932 65.3539 2.86538 -1.66223 23.1213 -1.18522 2.52525 170.402 -3.45657 86.8155 -11.6326 -21.0636 -2.03925 61.8455 -1.21135 -5.35407 24.3774 -2.57443 6.45014 0.0218764 8.00425 -90.186 10.8652 -0.0423578 -0.365938 -0.805836 -0.0584247 -0.363718 -23.3406 0.0695643 -0.361747 -3.32794 0.0695759 -0.361746 88.9578 -30.8089 -108.489 38.553 -15.781 -7.0152 0.486719 -55.5206 -19.8893 11.9067 -5.99875 -32.4031 -90.4173 -59.6216 80.0555 -12.1235 24.4312 -17.5124 0.0152091 -2.45505 -10.5363 -6.62089 0.184123 -11.7639 6.049 -8.43616 0.346199 -2.13372 -8.33429 -4.00741 
-315.519 98.7447 -292.329 101.231 -49.2903 98.1172 -176.875 -5.90621 91.357 -9.4352 -1.31659 0.216173 66.1636 2.98887 -1.32755 22.2493 -0.45773 1.68633 170.54 -3.68996 86.9476 -10.8712 -19.7539 -2.07902 62.6343 -1.71492 -4.2729 23.6316 -2.49506 6.33958 -0.0106514 7.97741 -90.233 10.9185 -0.128926 -0.451281 -0.752496 -0.148657 -0.445182 -23.287 0.0126639 -0.469169 -3.27436 0.0126746 -0.469167 89.0212 -30.2793 -108.579 38.6462 -16.0111 -7.13066 1.65426 -54.6603 -19.0978 11.5263 -5.79919 -31.9026 -90.4511 -60.4236 80.1583 -11.5095 24.5176 -17.4789 -0.0885169 -2.7577 -10.6696 -6.57416 0.164591 -11.3159 6.39764 -8.26047 1.47073 -2.74939 -8.35291 -4.80825 
-315.551 98.6278 -292.289 101.239 -49.1601 97.8873 -176.749 -5.35316 91.3469 -10.5882 -1.09213 -0.0429904 66.5349 2.96274 -1.54022 22.4319 -0.835553 2.15725 170.162 -3.90392 86.525 -10.567 -18.6659 -1.84462 64.093 -2.54569 -2.90389 21.6811 -2.36233 6.21894 -0.0176624 7.98562 -90.1941 10.9023 -0.124977 -0.374327 -0.768744 -0.141331 -0.368466 -23.3035 -0.00669557 -0.394579 -3.29082 -0.00670921 -0.394588 88.8733 -30.44 -108.803 38.6083 -16.3715 -6.93352 3.33265 -42.2625 -17.6519 -7.48826 -1.71099 -19.1011 -90.3598 -60.1223 80.2251 -11.8229 24.4454 -17.4297 0.125633 -2.11352 -10.6723 -6.6319 0.137089 -10.5376 6.15848 -8.27234 0.975752 -2.59496 -8.27717 -4.41585 
-315.704 98.4724 -292.18 101.14 -49.1383 97.8977 -176.588 -4.64206 91.6464 -11.8649 -0.830764 -0.111334 67.0781 2.9626 -1.63466 22.9266 -0.931813 2.21753 170.288 -4.39424 86.6727 -9.7021 -17.0385 -1.8455 65.205 -3.21919 -1.17772 20.6737 -2.16753 5.91706 -0.00606882 8.00566 -90.2001 10.8622 -0.104548 -0.388214 -0.808809 -0.12153 -0.38325 -23.3435 0.0169648 -0.401686 -3.33085 0.0169593 -0.401689 88.9234 -30.2699 -108.774 38.8427 -17.3007 -7.04174 3.16888 -28.9679 -17.4681 -23.282 -0.359329 -10.3591 -90.2465 -59.4804 80.2598 -12.4005 24.7321 -17.4786 -0.0204551 -2.37288 -11.0023 -9.07073 0.386371 -12.4288 6.30287 -8.19242 0.973214 -2.54098 -8.20036 -4.58652 
-315.883 98.3633 -292.005 101.212 -49.1445 98.2054 -176.496 -4.20678 91.9807 -12.9707 -0.749579 0.0404661 68.0643 3.10229 -1.42046 22.0864 -0.759484 2.09912 170.428 -5.23415 86.9771 -8.38797 -14.9717 -1.74294 66.2474 -3.87206 0.937079 18.9672 -2.14642 6.00976 0.0207848 8.02722 -90.2371 10.8191 -0.0680332 -0.465131 -0.851963 -0.0884441 -0.461705 -23.3865 0.0749078 -0.46408 -3.37381 0.0748869 -0.464088 88.8386 -30.3603 -108.904 38.6813 -17.5324 -6.88925 2.2166 -27.3738 -17.8465 -15.695 -0.674291 -10.4513 -90.3881 -59.8616 80.1393 -11.9386 24.0243 -17.7048 0.228286 -1.85999 -10.0957 -3.50915 0.0219849 -9.28019 7.32551 -7.91436 1.86598 -4.32107 -8.00493 -6.28445 
-316.013 98.19 -291.787 100.896 -49.0947 97.6387 -176.717 -3.71155 91.7323 -13.6461 -0.974356 0.151383 68.2599 2.99971 -1.5817 20.9037 2.00991 -1.26333 170.561 -5.28637 86.8485 -8.33146 -13.0041 -1.99584 68.4932 -4.80844 3.27201 16.8305 -1.58904 5.16836 0.0180401 7.99219 -90.2007 10.8892 -0.0568016 -0.393868 -0.781815 -0.074083 -0.390993 -23.3165 0.064201 -0.392739 -3.30385 0.0642054 -0.392732 88.8994 -30.2853 -108.816 38.8605 -17.6044 -6.5711 2.05608 -27.0309 -18.0941 -15.5996 -0.691958 -10.1051 -90.5887 -60.1262 79.919 -11.4966 24.539 -17.5048 -0.110657 -3.01253 -10.7729 -5.43714 0.0784123 -10.6789 7.35091 -7.88634 2.10519 -5.04763 -7.98334 -6.64339 
-315.938 98.0742 -291.422 101.298 -48.827 97.9287 -176.724 -3.93506 91.8291 -14.1896 -0.748282 0.340848 68.6177 3.00093 -1.76807 23.3029 -1.03206 2.28994 170.498 -5.9987 86.7748 -8.22731 -10.5672 -1.97721 70.6552 -5.55802 5.95769 14.8838 -1.35205 4.93869 0.0103599 8.02112 -90.2084 10.8313 -0.0755571 -0.407354 -0.839691 -0.0933956 -0.403648 -23.3743 0.0503535 -0.41123 -3.36168 0.0503719 -0.411234 88.999 -30.0501 -108.716 39.0696 -17.5821 -6.60255 2.45104 -26.8179 -17.6261 -15.9242 -0.592519 -10.899 -90.5457 -60.3017 80.0093 -11.4026 24.531 -17.4382 -0.0170057 -2.58157 -10.9568 -5.02145 0.0373007 -9.92415 7.10224 -7.71275 2.48959 -4.73554 -7.8988 -6.8664 
-316.186 97.9262 -291.008 101.448 -48.9176 97.9752 -176.427 -3.70686 92.2232 -15.0391 -0.606077 0.132104 69.0664 2.98621 -1.98975 23.3341 -0.924995 2.1522 170.655 -6.30446 86.8752 -8.27335 -7.98396 -2.0202 72.9595 -6.27981 9.0798 12.4028 -0.878132 4.3862 0.0514683 8.03145 -90.2061 10.8108 0.00742304 -0.410476 -0.860185 -0.0106641 -0.41041 -23.3949 0.130436 -0.389272 -3.38222 0.130429 -0.389276 89.0689 -30.229 -108.506 38.9886 -17.3323 -6.53854 2.33937 -27.7645 -17.7065 -15.8369 -0.625549 -11.105 -90.6368 -60.4256 79.9106 -11.4513 24.1809 -17.6428 0.139296 -2.13768 -10.5897 -4.26358 0.00496855 -10.0675 6.9915 -7.78649 2.53183 -4.61644 -7.99104 -6.59265 
-316.276 97.7404 -290.619 101.419 -48.621 97.9896 -176.323 -3.33813 92.5404 -16.0776 -0.22766 0.208078 69.7836 3.06677 -2.02921 23.4185 -0.970752 2.18796 170.889 -6.66427 87.082 -8.3122 -4.76051 -2.03581 75.4847 -7.05073 12.1343 10.6711 -0.563605 4.06221 0.0119938 8.04963 -90.2052 10.7743 -0.0706475 -0.401412 -0.896685 -0.0882569 -0.397922 -23.4313 0.0532437 -0.404087 -3.41871 0.053255 -0.404088 88.9386 -30.2511 -108.753 38.9839 -17.3498 -6.67092 2.07345 -27.1672 -17.8948 -15.6108 -0.575768 -11.4092 -90.3968 -60.302 80.2086 -11.3664 24.1545 -17.657 0.185275 -2.26342 -10.9732 -4.58644 0.0170916 -9.91755 7.47213 -7.50342 2.87641 -4.89541 -7.76908 -6.82005 
